<?xml version="1.0" encoding="UTF-8"?><svg id="Layer_2" xmlns="http://www.w3.org/2000/svg" viewBox="0 0 1641.38 541"><defs><style>.cls-1{letter-spacing:-.01em;}.cls-2{letter-spacing:-.01em;}.cls-3{letter-spacing:-.02em;}.cls-4{letter-spacing:-.02em;}.cls-5{letter-spacing:0em;}.cls-6{letter-spacing:-.01em;}.cls-7{letter-spacing:0em;}.cls-8{letter-spacing:0em;}.cls-9{letter-spacing:0em;}.cls-10{letter-spacing:0em;}.cls-11{letter-spacing:0em;}.cls-12{letter-spacing:0em;}.cls-13{letter-spacing:-.01em;}.cls-14{letter-spacing:-.01em;}.cls-15{stroke-miterlimit:10;}.cls-15,.cls-16,.cls-17,.cls-18{stroke:#000;}.cls-19{letter-spacing:0em;}.cls-20{letter-spacing:-.02em;}.cls-21{letter-spacing:0em;}.cls-22{letter-spacing:-.02em;}.cls-23{letter-spacing:0em;}.cls-16,.cls-17,.cls-18{fill:none;stroke-linecap:round;stroke-linejoin:round;}.cls-24{letter-spacing:0em;}.cls-25{letter-spacing:-.03em;}.cls-26{letter-spacing:0em;}.cls-27{letter-spacing:-.03em;}.cls-28{letter-spacing:0em;}.cls-29{letter-spacing:-.01em;}.cls-30{letter-spacing:-.03em;}.cls-31{letter-spacing:-.02em;}.cls-32{letter-spacing:0em;}.cls-33{letter-spacing:-.01em;}.cls-34{letter-spacing:-.12em;}.cls-35{font-size:21.1px;}.cls-35,.cls-36,.cls-37,.cls-38,.cls-39{font-family:Nexa-Book, Nexa;}.cls-40{letter-spacing:-.02em;}.cls-41{letter-spacing:0em;}.cls-42{letter-spacing:-.04em;}.cls-43{letter-spacing:-.03em;}.cls-44{letter-spacing:0em;}.cls-45{letter-spacing:0em;}.cls-17{stroke-width:1.05px;}.cls-46{letter-spacing:-.02em;}.cls-47{letter-spacing:-.01em;}.cls-48{letter-spacing:-.01em;}.cls-49{letter-spacing:-.02em;}.cls-50{letter-spacing:0em;}.cls-51{letter-spacing:-.01em;}.cls-52{letter-spacing:0em;}.cls-53{letter-spacing:0em;}.cls-18{stroke-width:.94px;}.cls-54{letter-spacing:0em;}.cls-36{font-size:10px;}.cls-55{letter-spacing:-.01em;}.cls-37{font-size:14px;}.cls-56{letter-spacing:0em;}.cls-57{letter-spacing:-.02em;}.cls-58{letter-spacing:-.01em;}.cls-38{font-size:8px;}.cls-39{font-size:36px;}.cls-59{letter-spacing:-.02em;}</style></defs><g id="Layer_1-2"><path d="m1083.95,1v78h-331V1h331m1-1h-333v80h333V0h0Z"/><text class="cls-39" transform="translate(790.67 53.52)"><tspan class="cls-23" x="0" y="0">N</tspan><tspan class="cls-44" x="27.07" y="0">u</tspan><tspan class="cls-29" x="48.89" y="0">m</tspan><tspan x="81.86" y="0">trip Game</tspan></text><path class="cls-16" d="m918.45,80s1.5,71.75,71.75,71.75l459,.75"/><path class="cls-16" d="m917.57,184.5l.88-104.44c0,2.35-.73,72.69-72.75,72.69H121.95s-38.5,1.25-38.5,34.25"/><rect class="cls-16" x=".5" y="187.38" width="166.55" height="51.25"/><text class="cls-35" transform="translate(21.95 221.27)"><tspan class="cls-21" x="0" y="0">C</tspan><tspan class="cls-59" x="14.81" y="0">r</tspan><tspan x="23.25" y="0">ea</tspan><tspan class="cls-26" x="49" y="0">t</tspan><tspan x="57.19" y="0">e </tspan><tspan class="cls-8" x="75.06" y="0">F</tspan><tspan x="88.18" y="0">ield</tspan></text><rect class="cls-16" x="248.66" y="187" width="49.74" height="51.25"/><text class="cls-35" transform="translate(263 220.89)"><tspan x="0" y="0">UI</tspan></text><path class="cls-16" d="m306.2,152.25s-32.53,1.25-32.53,34.25"/><rect class="cls-16" x="1394.73" y="186.75" width="140.85" height="51.25"/><text class="cls-35" transform="translate(1409.85 220.65) scale(1.01 1)"><tspan class="cls-10" x="0" y="0">I</tspan><tspan class="cls-9" x="5.46" y="0">npu</tspan><tspan class="cls-24" x="44.48" y="0">t</tspan><tspan x="52.67" y="0">chec</tspan><tspan class="cls-6" x="99.34" y="0">k</tspan></text><path class="cls-16" d="m486.2,153.25s-33.12,1-33.12,33.13"/><rect class="cls-16" x="629.51" y="184.75" width="114.55" height="51.25"/><text class="cls-35" transform="translate(638.22 220.65) scale(1.01 1)"><tspan class="cls-49" x="0" y="0">R</tspan><tspan class="cls-12" x="14.41" y="0">ecursion</tspan></text><rect class="cls-16" x="1059.06" y="185.75" width="190.67" height="51.25"/><text class="cls-35" transform="translate(1068.74 221.65) scale(1.01 1)"><tspan x="0" y="0">Win / </tspan><tspan class="cls-2" x="61.55" y="0">L</tspan><tspan class="cls-5" x="73.35" y="0">oss Chec</tspan><tspan class="cls-6" x="163.32" y="0">k</tspan></text><path class="cls-16" d="m1126.68,151.75s35.47-.31,35.47,34.47"/><rect class="cls-16" x="374.6" y="186.75" width="135.65" height="51.25"/><text class="cls-35" transform="translate(382.28 220.65) scale(1.01 1)"><tspan class="cls-49" x="0" y="0">R</tspan><tspan class="cls-12" x="14.41" y="0">epla</tspan><tspan class="cls-55" x="58.56" y="0">c</tspan><tspan class="cls-32" x="69.19" y="0">e</tspan><tspan class="cls-24" x="81.43" y="0">t</tspan><tspan x="89.62" y="0">op</tspan></text><path class="cls-16" d="m1449.18,152.62s35.47.69,35.47,35.47"/><rect class="cls-16" x="854.82" y="185" width="122.84" height="51.25"/><text class="cls-35" transform="translate(865.22 220.89) scale(1.01 1)"><tspan x="0" y="0">Gameloop</tspan></text><path class="cls-16" d="m724.6,153.52s-33.12-1-33.12,31.13"/><path class="cls-16" d="m81.18,238.44s1.25,32.53,34.25,32.53"/><path class="cls-16" d="m240.79,273.08s32.53-1.25,32.53-34.25"/><rect class="cls-16" x="114.57" y="254.5" width="125" height="37"/><text class="cls-36" transform="translate(125.56 270.06)"><tspan x="0" y="0">Gene</tspan><tspan class="cls-3" x="25.27" y="0">r</tspan><tspan x="29.27" y="0">a</tspan><tspan class="cls-52" x="35.61" y="0">t</tspan><tspan x="39.49" y="0">e playfield UI </tspan><tspan x="0" y="12">using</tspan><tspan class="cls-20" x="25.47" y="12"> </tspan><tspan x="27.89" y="12">field numbers</tspan></text><path class="cls-16" d="m1394.57,268.5l-443.27.5c-32.12,0-33.12-32.62-33.12-32.62l.39,78.12h9.57c6.49,0,11.75,5.26,11.75,11.75h0c0,6.49-5.26,11.75-11.75,11.75h-9.69v67.98"/><rect class="cls-16" x="1395.08" y="248.5" width="186.5" height="43.5"/><text class="cls-36" transform="translate(1406.55 261.06)"><tspan x="0" y="0">Gameloop as</tspan><tspan class="cls-53" x="63.62" y="0">k</tspan><tspan x="68.35" y="0">s</tspan><tspan class="cls-20" x="73.34" y="0"> </tspan><tspan class="cls-48" x="75.76" y="0">f</tspan><tspan class="cls-50" x="79.33" y="0">o</tspan><tspan class="cls-25" x="85.33" y="0">r</tspan><tspan x="89.26" y="0" xml:space="preserve"> numbers, puts </tspan><tspan x="0" y="12">th</tspan><tspan class="cls-31" x="9.86" y="12">r</tspan><tspan x="13.86" y="12">ough input chec</tspan><tspan class="cls-27" x="89.95" y="12">k</tspan><tspan x="94.43" y="12">e</tspan><tspan class="cls-42" x="100.29" y="12">r</tspan><tspan class="cls-50" x="104.05" y="12">. </tspan><tspan class="cls-28" x="0" y="24">I</tspan><tspan x="2.59" y="24">npu</tspan><tspan class="cls-54" x="21.08" y="24">t</tspan><tspan x="24.96" y="24">chec</tspan><tspan class="cls-58" x="47.08" y="24">k</tspan><tspan x="51.79" y="24"> </tspan><tspan class="cls-31" x="54.4" y="24">r</tspan><tspan class="cls-7" x="58.4" y="24">e</tspan><tspan x="64.2" y="24">turns</tspan><tspan class="cls-30" x="89.43" y="24"> </tspan><tspan class="cls-46" x="91.77" y="24">v</tspan><tspan x="97.08" y="24">alid</tspan><tspan class="cls-30" x="114.37" y="24"> </tspan><tspan class="cls-46" x="116.71" y="24">v</tspan><tspan x="122.02" y="24">alues</tspan></text><line class="cls-16" x1="1488.33" y1="248.5" x2="1488.33" y2="238"/><path class="cls-16" d="m1488.36,292.26s-.69,35.47-35.47,35.47h-674.32"/><rect class="cls-17" x="547.05" y="306.38" width="231.96" height="43.5"/><text class="cls-36" transform="translate(558.17 318.95)"><tspan class="cls-34" x="0" y="0">T</tspan><tspan x="4.75" y="0">a</tspan><tspan class="cls-27" x="11.09" y="0">k</tspan><tspan x="15.57" y="0">es input numbe</tspan><tspan class="cls-25" x="89.92" y="0">r</tspan><tspan x="93.85" y="0" xml:space="preserve"> and runs </tspan><tspan class="cls-31" x="141.76" y="0">r</tspan><tspan x="145.76" y="0">ecursion </tspan><tspan x="0" y="12">algorithm using</tspan><tspan class="cls-20" x="74.46" y="12"> </tspan><tspan x="76.88" y="12">field numbers. </tspan><tspan class="cls-19" x="147.75" y="12">E</tspan><tspan x="154.24" y="12">m</tspan><tspan class="cls-47" x="163.53" y="12">p</tspan><tspan x="169.76" y="12">ties</tspan><tspan class="cls-20" x="186.76" y="12"> </tspan><tspan x="189.18" y="12">field, </tspan><tspan x="0" y="24">doubles original</tspan><tspan class="cls-20" x="76.13" y="24"> </tspan><tspan x="78.55" y="24">field</tspan></text><path class="cls-16" d="m183.57,291.5s1.5,30.5,34.5,30.5"/><line class="cls-16" x1="546.57" y1="322.5" x2="218.07" y2="322"/><line class="cls-15" x1="663.04" y1="306.38" x2="663.04" y2="236"/><path class="cls-16" d="m663.09,350.11c0,33-32.53,34.25-32.53,34.25h-61.6"/><rect class="cls-17" x="337" y="362.73" width="231.96" height="43.5"/><text class="cls-36" transform="translate(365.82 382.3)"><tspan class="cls-34" x="0" y="0">T</tspan><tspan x="4.75" y="0">a</tspan><tspan class="cls-27" x="11.09" y="0">k</tspan><tspan x="15.57" y="0">es em</tspan><tspan class="cls-47" x="44.18" y="0">p</tspan><tspan x="50.41" y="0">t</tspan><tspan class="cls-43" x="54.33" y="0">y</tspan><tspan class="cls-20" x="59.51" y="0"> </tspan><tspan x="61.93" y="0">fields and</tspan><tspan class="cls-20" x="108.83" y="0"> </tspan><tspan class="cls-11" x="111.25" y="0">fills</tspan><tspan class="cls-20" x="126.93" y="0"> </tspan><tspan x="129.35" y="0">them up, </tspan><tspan x="0" y="12">p</tspan><tspan class="cls-31" x="6.35" y="12">r</tspan><tspan x="10.35" y="12">eparing</tspan><tspan class="cls-20" x="47.5" y="12"> </tspan><tspan class="cls-1" x="49.92" y="12">f</tspan><tspan x="53.49" y="12">o</tspan><tspan class="cls-25" x="59.49" y="12">r</tspan><tspan class="cls-20" x="63.42" y="12"> </tspan><tspan x="65.84" y="12">the n</tspan><tspan class="cls-33" x="90.25" y="12">e</tspan><tspan x="95.98" y="12">xt </tspan><tspan class="cls-31" x="107.41" y="12">r</tspan><tspan x="111.41" y="12">ound</tspan></text><line class="cls-16" x1="337" y1="387.25" x2="189.57" y2="387.25"/><path class="cls-16" d="m189.31,387.35c-33,0-34.5-30.5-34.5-30.5v-64.59"/><path class="cls-16" d="m449.65,238l-.07,75.5h-9.3c-4.8,0-8.7,3.89-8.7,8.7h0c0,4.8,3.89,8.7,8.7,8.7h9.3s0,31.83,0,31.83"/><rect class="cls-16" x="849.57" y="507.5" width="137" height="33"/><text class="cls-36" transform="translate(862.21 526.78)"><tspan x="0" y="0">Playfield</tspan><tspan class="cls-20" x="41.47" y="0"> </tspan><tspan class="cls-48" x="43.89" y="0">f</tspan><tspan class="cls-50" x="47.46" y="0">o</tspan><tspan class="cls-25" x="53.46" y="0">r</tspan><tspan x="57.39" y="0" xml:space="preserve"> n</tspan><tspan class="cls-33" x="66.08" y="0">e</tspan><tspan x="71.81" y="0">xt </tspan><tspan class="cls-31" x="83.24" y="0">r</tspan><tspan x="87.24" y="0">ound</tspan></text><path class="cls-16" d="m1163.07,238v76.5h9c6.49,0,11.75,5.26,11.75,11.75h0c0,6.49-5.26,11.75-11.75,11.75h-9v67.98c0,32.13-33.62,33.13-33.62,33.13h-142.88"/><rect class="cls-18" x="845.78" y="406.5" width="140.79" height="49"/><text class="cls-36" transform="translate(856.8 422.91)"><tspan x="0" y="0">Chec</tspan><tspan class="cls-13" x="24.05" y="0">k</tspan><tspan x="28.76" y="0" xml:space="preserve"> i</tspan><tspan class="cls-4" x="33.6" y="0">f</tspan><tspan x="37.09" y="0"> </tspan><tspan class="cls-3" x="39.7" y="0">r</tspan><tspan x="43.7" y="0">ound is</tspan><tspan class="cls-57" x="78.02" y="0"> </tspan><tspan class="cls-22" x="80.4" y="0">w</tspan><tspan x="88.56" y="0">on, </tspan><tspan x="0" y="12">i</tspan><tspan class="cls-4" x="2.23" y="12">f</tspan><tspan x="5.72" y="12" xml:space="preserve"> so </tspan><tspan class="cls-47" x="21.93" y="12">c</tspan><tspan x="26.97" y="12">ong</tspan><tspan class="cls-3" x="45.16" y="12">r</tspan><tspan x="49.16" y="12">atula</tspan><tspan class="cls-56" x="74.19" y="12">t</tspan><tspan class="cls-41" x="78.07" y="12">e pla</tspan><tspan class="cls-4" x="101.6" y="12">y</tspan><tspan x="106.81" y="12">e</tspan><tspan class="cls-42" x="112.67" y="12">r</tspan><tspan x="116.43" y="12">,</tspan><tspan x="0" y="24">else </tspan><tspan class="cls-47" x="21.69" y="24">c</tspan><tspan x="26.73" y="24">o</tspan><tspan class="cls-33" x="32.73" y="24">n</tspan><tspan x="38.68" y="24">tinue game</tspan></text><path class="cls-16" d="m450.02,406.09s-.75,32.53,32.25,32.53h363.52"/><text class="cls-36" transform="translate(674.4 431.24)"><tspan x="0" y="0">Gi</tspan><tspan class="cls-46" x="9.7" y="0">v</tspan><tspan x="15.01" y="0">e</tspan><tspan class="cls-20" x="20.87" y="0"> </tspan><tspan class="cls-11" x="23.29" y="0">field</tspan></text><line class="cls-16" x1="918.45" y1="455.5" x2="918.45" y2="507.5"/><path class="cls-16" d="m289.93,239v71h-6.13c-5.79,0-10.48,4.69-10.48,10.48h0c0,5.79,4.69,10.48,10.48,10.48h6.13s0,44.3,0,44.3h-5.61c-6.07,0-10.99,4.92-10.99,10.99h0c0,6.07,4.92,10.99,10.99,10.99h5.61s0,96.76,0,96.76c0,16.57,13.43,30,30,30h529.64"/><path class="cls-17" d="m30.59,239v255c0,16.57,13.43,30,30,30h257.18"/><path class="cls-16" d="m986.57,524h624.31c16.57,0,30-13.43,30-30V132.5c0-16.57-13.43-30-30-30h-603.31c-5.52,0-10,4.48-10,10v8.21c0,7.08,5.74,12.82,12.82,12.82h0c7.08,0,12.82,5.74,12.82,12.82v9.81c0,7.08-5.74,12.82-12.82,12.82h-54.03c-8.65,0-15.66,7.01-15.66,15.66h0"/><text class="cls-37" transform="translate(1290.33 94.84)"><tspan class="cls-14" x="0" y="0">N</tspan><tspan class="cls-51" x="10.44" y="0">e</tspan><tspan class="cls-45" x="18.47" y="0">xt </tspan><tspan class="cls-40" x="34.47" y="0">r</tspan><tspan x="40.07" y="0">ound</tspan></text><text class="cls-37" transform="translate(155.01 200.8)"><tspan x="0" y="0">1</tspan></text><text class="cls-37" transform="translate(286.45 200.34)"><tspan x="0" y="0">2</tspan></text><text class="cls-37" transform="translate(498.59 200.82)"><tspan x="0" y="0">3</tspan></text><text class="cls-37" transform="translate(731.89 198.34)"><tspan x="0" y="0">4</tspan></text><text class="cls-37" transform="translate(965.38 198.02)"><tspan x="0" y="0">5</tspan></text><text class="cls-37" transform="translate(1236.6 198.34)"><tspan x="0" y="0">6</tspan></text><text class="cls-37" transform="translate(1522.7 200.22)"><tspan x="0" y="0">7</tspan></text><text class="cls-38" transform="translate(231.04 262.65)"><tspan x="0" y="0">8</tspan></text><text class="cls-38" transform="translate(1572.42 255.91)"><tspan x="0" y="0">9</tspan></text><text class="cls-38" transform="translate(765.93 316.41)"><tspan x="0" y="0">10</tspan></text><text class="cls-38" transform="translate(559.21 370.87)"><tspan x="0" y="0">11</tspan></text><text class="cls-38" transform="translate(974.44 416.44)"><tspan x="0" y="0">12</tspan></text><text class="cls-38" transform="translate(975.06 516.56)"><tspan x="0" y="0">13</tspan></text></g></svg>